<?xml version="1.0" encoding="UTF-8"?>
<svg version="1.1" xmlns="http://www.w3.org/2000/svg" width="512" height="512">
<path d="M0 0 C3.07318149 3.07318149 1 8.65386506 1 13 C16.51 13 32.02 13 48 13 C48 9.04 48 5.08 48 1 C49.32 0.01 50.64 -0.98 52 -2 C55.1875 -1.3125 55.1875 -1.3125 58 0 C59 2 59 2 59 13 C74.18 13 89.36 13 105 13 C105 9.37 105 5.74 105 2 C107 -1 107 -1 109.375 -1.875 C112 -2 112 -2 116 1 C116 4.96 116 8.92 116 13 C131.51 13 147.02 13 163 13 C163 9.04 163 5.08 163 1 C164.32 0.01 165.64 -0.98 167 -2 C170.1875 -1.3125 170.1875 -1.3125 173 0 C174 2 174 2 174 13 C189.18 13 204.36 13 220 13 C220 9.37 220 5.74 220 2 C222 -1 222 -1 223.8125 -1.875 C227.0534773 -2.0601987 228.48963085 -0.99594924 231 1 C231.48828125 3.91796875 231.48828125 3.91796875 231.3125 7.1875 C231.24482422 8.81751953 231.24482422 8.81751953 231.17578125 10.48046875 C231.11777344 11.31191406 231.05976563 12.14335937 231 13 C231.82612793 12.97381592 232.65225586 12.94763184 233.50341797 12.9206543 C236.61581787 12.83462225 239.7276051 12.77236353 242.84082031 12.7253418 C244.83179353 12.68830377 246.82221653 12.62471772 248.8125 12.56054688 C256.91167217 12.4582846 263.3470291 13.07247572 270 18 C272.33460053 20.51062434 274.26197312 23.04652864 276 26 C276.3609375 26.59683594 276.721875 27.19367187 277.09375 27.80859375 C279.43742458 33.47584134 279.15087513 39.85030554 279.15821838 45.89012146 C279.16315636 46.76181553 279.16809434 47.63350961 279.17318195 48.53161865 C279.18848605 51.43961568 279.19689828 54.34759076 279.20532227 57.25561523 C279.21490637 59.34529308 279.22491676 61.43496902 279.23532104 63.52464294 C279.26231851 69.18932473 279.28335598 74.85401481 279.30332303 80.51872516 C279.32521443 86.44178442 279.35258768 92.36481829 279.37937927 98.28785706 C279.42926352 109.50030528 279.47421818 120.71276763 279.51740164 131.92524344 C279.5668105 144.69180603 279.62171509 157.45834313 279.67708123 170.22488105 C279.79083576 196.48323025 279.897689 222.7416039 280 249 C280.51650116 248.47239578 281.03300232 247.94479156 281.56515503 247.40119934 C286.46442128 242.40123375 291.37601113 237.41377286 296.30138969 232.43954945 C298.83242409 229.88255803 301.35865304 227.32118873 303.87402344 224.7487793 C306.30729175 222.26069075 308.75301259 219.78546275 311.20740128 217.31821251 C312.58390349 215.92814331 313.94763314 214.52546288 315.31100464 213.12251282 C321.51165589 206.91913909 327.69279747 201.95257481 336.50390625 200.37109375 C338.01791016 200.40396484 338.01791016 200.40396484 339.5625 200.4375 C340.57441406 200.43621094 341.58632813 200.43492187 342.62890625 200.43359375 C351.47832489 201.92046015 357.1796055 206.37752482 363.3125 212.6875 C364.00150391 213.35716797 364.69050781 214.02683594 365.40039062 214.71679688 C371.55397025 220.9297167 375.57392757 227.46685605 375.5625 236.4375 C375.58441406 237.44683594 375.60632813 238.45617187 375.62890625 239.49609375 C373.90657942 249.09191464 368.6853731 254.87620433 361.18652344 260.65136719 C359.36819771 262.11324043 357.55229048 263.57812558 355.73846436 265.045578 C354.78053734 265.81477255 353.82261032 266.58396709 352.83565521 267.37647057 C300.95521299 308.01063475 300.95521299 308.01063475 274.55206299 365.4772644 C272.1903985 389.33642269 273.83312287 413.79227433 277.081604 437.50813293 C277.21611088 438.49096882 277.35061775 439.4738047 277.48920059 440.48642349 C277.7462051 442.29342177 278.01897075 444.09829158 278.31185532 445.89982224 C279.60984323 454.69992327 277.9454548 461.73206353 272.78515625 468.984375 C269.25137773 472.97437438 265.01070966 475.32976345 260 477 C258.32472209 477.09434974 256.6459212 477.13090807 254.96799183 477.13422108 C253.9219336 477.13867892 252.87587537 477.14313676 251.79811841 477.14772969 C250.64502941 477.14754533 249.4919404 477.14736097 248.3039093 477.14717102 C246.47093262 477.15268605 246.47093262 477.15268605 244.6009261 477.1583125 C241.20266339 477.16744212 237.80444898 477.17204964 234.40617859 477.17470181 C230.74345977 477.17860422 227.08075494 477.18818261 223.41804504 477.19691467 C214.56935075 477.216681 205.72065531 477.22674556 196.87194446 477.23564246 C192.70538701 477.24002514 188.53883084 477.24539201 184.3722744 477.25063133 C170.52241053 477.26764388 156.67254746 477.28213815 142.82267475 477.28938007 C139.2282187 477.29128998 135.63376266 477.29321031 132.03930664 477.29516602 C130.69922248 477.29589163 130.69922248 477.29589163 129.3320659 477.2966319 C114.85906884 477.30493256 100.38615442 477.33026998 85.91319344 477.36274669 C71.05565513 477.39581469 56.19815881 477.4138286 41.3405835 477.41702431 C32.99797739 477.41918967 24.65549178 477.42794196 16.31292152 477.45348549 C9.20808557 477.47518897 2.1033994 477.48324468 -5.00146594 477.47351871 C-8.62579688 477.46897292 -12.24981877 477.470876 -15.87410736 477.49028015 C-19.80586359 477.51114842 -23.7371938 477.50092986 -27.66899109 477.48774719 C-28.81092649 477.49871644 -29.95286188 477.50968568 -31.12940139 477.52098733 C-39.04437409 477.45685956 -44.34800993 476.1882453 -50.4609375 470.8515625 C-51.09257813 470.11679687 -51.72421875 469.38203125 -52.375 468.625 C-53.02210937 467.89539063 -53.66921875 467.16578125 -54.3359375 466.4140625 C-57.78300384 461.4133888 -58.25073922 456.59846724 -58.25726891 450.63385296 C-58.26077498 449.91037907 -58.26428105 449.18690518 -58.26789337 448.44150785 C-58.27719982 446.01640424 -58.27228605 443.59154116 -58.26742554 441.16642761 C-58.27116217 439.41049657 -58.27576375 437.65456719 -58.28115618 435.89864045 C-58.29339986 431.07248257 -58.2931241 426.24639394 -58.29076743 421.42022407 C-58.29035961 416.2155989 -58.30139505 411.01099603 -58.31088257 405.80638123 C-58.32750089 395.60929067 -58.33299249 385.41222324 -58.33410732 375.21512028 C-58.33505737 366.92729295 -58.33916551 358.63947325 -58.34550858 350.35164833 C-58.36312301 326.85889721 -58.37234709 303.36616438 -58.37084763 279.87340661 C-58.37076772 278.60670343 -58.3706878 277.34000024 -58.37060547 276.03491211 C-58.37052371 274.76666402 -58.37044195 273.49841593 -58.37035771 272.19173608 C-58.36954468 251.63461201 -58.38868606 231.07756119 -58.4168822 210.5204583 C-58.44559923 189.41723808 -58.45942316 168.3140536 -58.45769465 147.21081334 C-58.45703036 135.36105813 -58.46253998 123.51137971 -58.48405075 111.66164207 C-58.50224695 101.57309466 -58.50662267 91.48465886 -58.4930319 81.39610215 C-58.48649449 76.24866503 -58.48641307 71.10144212 -58.5037384 65.95402527 C-58.51943975 61.2406352 -58.51663548 56.52762972 -58.49917014 51.8142492 C-58.49609378 50.11037489 -58.49975653 48.40647209 -58.51089029 46.70263138 C-58.57063407 36.91021045 -58.27869443 28.88445155 -52.32421875 20.6953125 C-51.51404297 19.91800781 -51.51404297 19.91800781 -50.6875 19.125 C-50.15511719 18.59132813 -49.62273437 18.05765625 -49.07421875 17.5078125 C-43.82538931 13.69227923 -39.17213973 12.62439305 -32.75390625 12.70703125 C-32.09792953 12.71127609 -31.44195282 12.71552094 -30.76609802 12.71989441 C-28.69779089 12.73651221 -26.63050599 12.77412762 -24.5625 12.8125 C-23.14910275 12.82756889 -21.73569002 12.84125341 -20.32226562 12.85351562 C-16.88118565 12.88635896 -13.44069281 12.93801985 -10 13 C-10.02320313 12.24074219 -10.04640625 11.48148438 -10.0703125 10.69921875 C-10.08835938 9.70535156 -10.10640625 8.71148437 -10.125 7.6875 C-10.14820313 6.70136719 -10.17140625 5.71523438 -10.1953125 4.69921875 C-10 2 -10 2 -8 -1 C-4.36442231 -2.21185923 -3.36216382 -1.59260392 0 0 Z " fill="#F0DFD5" transform="translate(132,18)"/>
<path d="M0 0 C3.07318149 3.07318149 1 8.65386506 1 13 C16.51 13 32.02 13 48 13 C48 9.04 48 5.08 48 1 C49.32 0.01 50.64 -0.98 52 -2 C55.1875 -1.3125 55.1875 -1.3125 58 0 C59 2 59 2 59 13 C74.18 13 89.36 13 105 13 C105 9.37 105 5.74 105 2 C107 -1 107 -1 109.375 -1.875 C112 -2 112 -2 116 1 C116 4.96 116 8.92 116 13 C131.51 13 147.02 13 163 13 C163 9.04 163 5.08 163 1 C164.32 0.01 165.64 -0.98 167 -2 C170.1875 -1.3125 170.1875 -1.3125 173 0 C174 2 174 2 174 13 C189.18 13 204.36 13 220 13 C220 9.37 220 5.74 220 2 C222 -1 222 -1 223.8125 -1.875 C227.0534773 -2.0601987 228.48963085 -0.99594924 231 1 C231.48828125 3.91796875 231.48828125 3.91796875 231.3125 7.1875 C231.24482422 8.81751953 231.24482422 8.81751953 231.17578125 10.48046875 C231.11777344 11.31191406 231.05976563 12.14335937 231 13 C231.82612793 12.97381592 232.65225586 12.94763184 233.50341797 12.9206543 C236.61581787 12.83462225 239.7276051 12.77236353 242.84082031 12.7253418 C244.83179353 12.68830377 246.82221653 12.62471772 248.8125 12.56054688 C256.91167217 12.4582846 263.3470291 13.07247572 270 18 C272.33460053 20.51062434 274.26197312 23.04652864 276 26 C276.3609375 26.59683594 276.721875 27.19367187 277.09375 27.80859375 C279.43742458 33.47584134 279.15087513 39.85030554 279.15821838 45.89012146 C279.16315636 46.76181553 279.16809434 47.63350961 279.17318195 48.53161865 C279.18848605 51.43961568 279.19689828 54.34759076 279.20532227 57.25561523 C279.21490637 59.34529308 279.22491676 61.43496902 279.23532104 63.52464294 C279.26231851 69.18932473 279.28335598 74.85401481 279.30332303 80.51872516 C279.32521443 86.44178442 279.35258768 92.36481829 279.37937927 98.28785706 C279.42926352 109.50030528 279.47421818 120.71276763 279.51740164 131.92524344 C279.5668105 144.69180603 279.62171509 157.45834313 279.67708123 170.22488105 C279.79083576 196.48323025 279.897689 222.7416039 280 249 C280.51650116 248.47239578 281.03300232 247.94479156 281.56515503 247.40119934 C286.46442128 242.40123375 291.37601113 237.41377286 296.30138969 232.43954945 C298.83242409 229.88255803 301.35865304 227.32118873 303.87402344 224.7487793 C306.30729175 222.26069075 308.75301259 219.78546275 311.20740128 217.31821251 C312.58390349 215.92814331 313.94763314 214.52546288 315.31100464 213.12251282 C321.51165589 206.91913909 327.69279747 201.95257481 336.50390625 200.37109375 C338.01791016 200.40396484 338.01791016 200.40396484 339.5625 200.4375 C340.57441406 200.43621094 341.58632813 200.43492187 342.62890625 200.43359375 C351.47832489 201.92046015 357.1796055 206.37752482 363.3125 212.6875 C364.00150391 213.35716797 364.69050781 214.02683594 365.40039062 214.71679688 C371.55397025 220.9297167 375.57392757 227.46685605 375.5625 236.4375 C375.58441406 237.44683594 375.60632813 238.45617187 375.62890625 239.49609375 C373.90657942 249.09191464 368.6853731 254.87620433 361.18652344 260.65136719 C359.36819771 262.11324043 357.55229048 263.57812558 355.73846436 265.045578 C354.78053734 265.81477255 353.82261032 266.58396709 352.83565521 267.37647057 C300.95521299 308.01063475 300.95521299 308.01063475 274.55206299 365.4772644 C272.1903985 389.33642269 273.83312287 413.79227433 277.081604 437.50813293 C277.21611088 438.49096882 277.35061775 439.4738047 277.48920059 440.48642349 C277.7462051 442.29342177 278.01897075 444.09829158 278.31185532 445.89982224 C279.60984323 454.69992327 277.9454548 461.73206353 272.78515625 468.984375 C269.25137773 472.97437438 265.01070966 475.32976345 260 477 C258.32472209 477.09434974 256.6459212 477.13090807 254.96799183 477.13422108 C253.9219336 477.13867892 252.87587537 477.14313676 251.79811841 477.14772969 C250.64502941 477.14754533 249.4919404 477.14736097 248.3039093 477.14717102 C246.47093262 477.15268605 246.47093262 477.15268605 244.6009261 477.1583125 C241.20266339 477.16744212 237.80444898 477.17204964 234.40617859 477.17470181 C230.74345977 477.17860422 227.08075494 477.18818261 223.41804504 477.19691467 C214.56935075 477.216681 205.72065531 477.22674556 196.87194446 477.23564246 C192.70538701 477.24002514 188.53883084 477.24539201 184.3722744 477.25063133 C170.52241053 477.26764388 156.67254746 477.28213815 142.82267475 477.28938007 C139.2282187 477.29128998 135.63376266 477.29321031 132.03930664 477.29516602 C130.69922248 477.29589163 130.69922248 477.29589163 129.3320659 477.2966319 C114.85906884 477.30493256 100.38615442 477.33026998 85.91319344 477.36274669 C71.05565513 477.39581469 56.19815881 477.4138286 41.3405835 477.41702431 C32.99797739 477.41918967 24.65549178 477.42794196 16.31292152 477.45348549 C9.20808557 477.47518897 2.1033994 477.48324468 -5.00146594 477.47351871 C-8.62579688 477.46897292 -12.24981877 477.470876 -15.87410736 477.49028015 C-19.80586359 477.51114842 -23.7371938 477.50092986 -27.66899109 477.48774719 C-28.81092649 477.49871644 -29.95286188 477.50968568 -31.12940139 477.52098733 C-39.04437409 477.45685956 -44.34800993 476.1882453 -50.4609375 470.8515625 C-51.09257813 470.11679687 -51.72421875 469.38203125 -52.375 468.625 C-53.02210937 467.89539063 -53.66921875 467.16578125 -54.3359375 466.4140625 C-57.78300384 461.4133888 -58.25073922 456.59846724 -58.25726891 450.63385296 C-58.26077498 449.91037907 -58.26428105 449.18690518 -58.26789337 448.44150785 C-58.27719982 446.01640424 -58.27228605 443.59154116 -58.26742554 441.16642761 C-58.27116217 439.41049657 -58.27576375 437.65456719 -58.28115618 435.89864045 C-58.29339986 431.07248257 -58.2931241 426.24639394 -58.29076743 421.42022407 C-58.29035961 416.2155989 -58.30139505 411.01099603 -58.31088257 405.80638123 C-58.32750089 395.60929067 -58.33299249 385.41222324 -58.33410732 375.21512028 C-58.33505737 366.92729295 -58.33916551 358.63947325 -58.34550858 350.35164833 C-58.36312301 326.85889721 -58.37234709 303.36616438 -58.37084763 279.87340661 C-58.37076772 278.60670343 -58.3706878 277.34000024 -58.37060547 276.03491211 C-58.37052371 274.76666402 -58.37044195 273.49841593 -58.37035771 272.19173608 C-58.36954468 251.63461201 -58.38868606 231.07756119 -58.4168822 210.5204583 C-58.44559923 189.41723808 -58.45942316 168.3140536 -58.45769465 147.21081334 C-58.45703036 135.36105813 -58.46253998 123.51137971 -58.48405075 111.66164207 C-58.50224695 101.57309466 -58.50662267 91.48465886 -58.4930319 81.39610215 C-58.48649449 76.24866503 -58.48641307 71.10144212 -58.5037384 65.95402527 C-58.51943975 61.2406352 -58.51663548 56.52762972 -58.49917014 51.8142492 C-58.49609378 50.11037489 -58.49975653 48.40647209 -58.51089029 46.70263138 C-58.57063407 36.91021045 -58.27869443 28.88445155 -52.32421875 20.6953125 C-51.51404297 19.91800781 -51.51404297 19.91800781 -50.6875 19.125 C-50.15511719 18.59132813 -49.62273437 18.05765625 -49.07421875 17.5078125 C-43.82538931 13.69227923 -39.17213973 12.62439305 -32.75390625 12.70703125 C-32.09792953 12.71127609 -31.44195282 12.71552094 -30.76609802 12.71989441 C-28.69779089 12.73651221 -26.63050599 12.77412762 -24.5625 12.8125 C-23.14910275 12.82756889 -21.73569002 12.84125341 -20.32226562 12.85351562 C-16.88118565 12.88635896 -13.44069281 12.93801985 -10 13 C-10.02320313 12.24074219 -10.04640625 11.48148438 -10.0703125 10.69921875 C-10.08835938 9.70535156 -10.10640625 8.71148437 -10.125 7.6875 C-10.14820313 6.70136719 -10.17140625 5.71523438 -10.1953125 4.69921875 C-10 2 -10 2 -8 -1 C-4.36442231 -2.21185923 -3.36216382 -1.59260392 0 0 Z M-48 90 C-48.0873821 154.72655665 -48.0873821 154.72655665 -48.14648438 219.453125 C-48.15235817 228.1738283 -48.15841967 236.89453143 -48.16479492 245.61523438 C-48.16558617 246.70826315 -48.16637741 247.80129193 -48.16719264 248.92744279 C-48.18024779 266.58366311 -48.20390324 284.23985418 -48.23145839 301.89605714 C-48.25949285 320.01018307 -48.27617211 338.12429366 -48.28226548 356.23844039 C-48.28638599 367.41977532 -48.2994098 378.60102762 -48.3237494 389.78233711 C-48.3395824 397.44522248 -48.34440589 405.10806499 -48.34050413 412.77096553 C-48.33857879 417.19494768 -48.34157234 421.61878521 -48.35761642 426.04274178 C-48.37219413 430.09185808 -48.37296628 434.14073226 -48.36269668 438.18985961 C-48.36142706 439.65564121 -48.36525072 441.1214378 -48.37464955 442.58718981 C-48.38667751 444.57854865 -48.37841176 446.56999916 -48.36914349 448.56137276 C-48.37028265 449.6678778 -48.37142181 450.77438284 -48.37259549 451.91441834 C-47.86219699 456.14119053 -46.38206159 459.51947091 -43.46484375 462.64453125 C-39.35173049 465.78985315 -37.33287464 467.12384798 -32.20036125 467.13422108 C-31.18067784 467.13867892 -30.16099443 467.14313676 -29.11041152 467.14772969 C-27.98164631 467.14754533 -26.8528811 467.14736097 -25.68991089 467.14717102 C-23.90109314 467.15268605 -23.90109314 467.15268605 -22.07613766 467.1583125 C-18.75542629 467.1674514 -15.4347644 467.17205168 -12.11404514 467.17470181 C-8.53651725 467.17860057 -4.95900372 467.18817932 -1.38148499 467.19691467 C7.26443633 467.21669304 15.91035884 467.22674783 24.55629712 467.23564246 C28.62672363 467.24002383 32.69714883 467.2453911 36.76757431 467.25063133 C50.29742475 467.26764632 63.82727437 467.28214016 77.35713387 467.28938007 C80.86959967 467.29129001 84.38206547 467.29321033 87.89453125 467.29516602 C88.76755189 467.29564976 89.64057253 467.2961335 90.54004835 467.2966319 C104.68008383 467.30493085 118.82003467 467.33026427 132.96003319 467.36274669 C147.47401612 467.39581659 161.98795604 467.41382884 176.50197685 467.41702431 C184.65233281 467.41918967 192.80256541 467.4279418 200.95288467 467.45348549 C207.89488559 467.4751917 214.8367332 467.4832434 221.7787642 467.47351871 C225.32005502 467.46897348 228.86102954 467.47087261 232.40227699 467.49028015 C236.24431892 467.51115398 240.08592507 467.50092788 243.92800903 467.48774719 C245.04338991 467.49871644 246.15877079 467.50968568 247.30795109 467.52098733 C253.57553345 467.46904113 258.90211597 466.93902909 264 463 C268.31131139 457.39206206 268.56182713 451.67933043 268.45410156 444.8203125 C268.45468567 443.83403366 268.45526978 442.84775482 268.45587158 441.83158875 C268.45310138 438.59569184 268.42205915 435.36073451 268.390625 432.125 C268.38315884 429.87199405 268.37746768 427.61898158 268.37347412 425.3659668 C268.35824743 419.45410028 268.31899079 413.54263076 268.2746582 407.63092041 C268.23364171 401.59124114 268.21544947 395.55149734 268.1953125 389.51171875 C268.15249397 377.67430535 268.08427832 365.83718577 268 354 C266.87129657 354.95637377 265.74414712 355.91458174 264.61766052 356.87356567 C263.98981376 357.4069713 263.36196699 357.94037693 262.71509457 358.48994637 C260.84411921 360.13724512 259.23768421 361.87592237 257.66015625 363.8046875 C247.96525477 374.97824169 238.75574859 379.24245 224.63427734 382.99902344 C220.50110909 384.13740782 216.41941974 385.40404416 212.33203125 386.6953125 C209.34685764 387.63181927 206.36105614 388.56631129 203.375 389.5 C202.65240997 389.72645203 201.92981995 389.95290405 201.18533325 390.18621826 C199.11321851 390.83123567 197.03778287 391.46415483 194.9609375 392.09375 C193.76259277 392.46177734 192.56424805 392.82980469 191.32958984 393.20898438 C188.0834425 393.98017644 185.32100983 394.15425974 182 394 C181.75559949 388.64406289 182.57317512 384.16854624 184.1953125 379.109375 C184.42523895 378.36528381 184.65516541 377.62119263 184.89205933 376.85455322 C185.62718114 374.48339014 186.37581877 372.11675364 187.125 369.75 C187.83194567 367.4801312 188.53634726 365.20949411 189.23930359 362.93838692 C189.72571253 361.38518003 190.22023962 359.83447232 190.72590637 358.2874279 C192.01708241 354.31533927 193.17282906 350.38372179 194.0534668 346.29959106 C196.0893316 337.53753215 198.21800326 331.23531092 206.01513672 326.25439453 C208.12936575 324.9613926 210.26093937 323.70907959 212.41171455 322.47782707 C235.07739483 309.03601318 259.80451533 288.92362332 268 263 C271.57343743 249.01134408 272.04703609 234.33302848 272.55859375 219.97265625 C272.59204997 219.09004332 272.6255062 218.2074304 272.65997624 217.29807162 C274.17062317 174.96616733 270.2061642 132.04501338 268 90 C163.72 90 59.44 90 -48 90 Z " fill="#020101" transform="translate(132,18)"/>
<path d="M0 0 C1.87558594 0.00966797 1.87558594 0.00966797 3.7890625 0.01953125 C5.09101562 0.03628906 6.39296875 0.05304687 7.734375 0.0703125 C9.05179688 0.07933594 10.36921875 0.08835938 11.7265625 0.09765625 C14.97934962 0.12122717 18.23177089 0.15413228 21.484375 0.1953125 C21.54496094 1.12214844 21.60554688 2.04898438 21.66796875 3.00390625 C21.75175781 4.20144531 21.83554688 5.39898437 21.921875 6.6328125 C22.00308594 7.82777344 22.08429688 9.02273437 22.16796875 10.25390625 C22.16093614 13.08101494 22.16093614 13.08101494 23.484375 14.1953125 C25.48395864 14.23612033 27.48482754 14.23785606 29.484375 14.1953125 C31.59256011 9.97894229 31.09289485 4.89307426 31.484375 0.1953125 C46.994375 0.1953125 62.504375 0.1953125 78.484375 0.1953125 C78.979375 6.1353125 78.979375 6.1353125 79.484375 12.1953125 C79.979375 13.1853125 79.979375 13.1853125 80.484375 14.1953125 C82.48392246 14.23785606 84.48479136 14.23612033 86.484375 14.1953125 C89.81770833 10.86197917 88.12282424 4.89547242 88.484375 0.1953125 C104.324375 0.1953125 120.164375 0.1953125 136.484375 0.1953125 C136.814375 4.4853125 137.144375 8.7753125 137.484375 13.1953125 C138.60971605 14.55149749 138.60971605 14.55149749 141.546875 14.2578125 C142.51625 14.2371875 143.485625 14.2165625 144.484375 14.1953125 C146.59256011 9.97894229 146.09289485 4.89307426 146.484375 0.1953125 C161.994375 0.1953125 177.504375 0.1953125 193.484375 0.1953125 C193.814375 4.1553125 194.144375 8.1153125 194.484375 12.1953125 C194.814375 12.8553125 195.144375 13.5153125 195.484375 14.1953125 C197.48392246 14.23785606 199.48479136 14.23612033 201.484375 14.1953125 C204.81770833 10.86197917 203.12282424 4.89547242 203.484375 0.1953125 C219.324375 0.1953125 235.164375 0.1953125 251.484375 0.1953125 C251.814375 4.4853125 252.144375 8.7753125 252.484375 13.1953125 C252.814375 13.5253125 253.144375 13.8553125 253.484375 14.1953125 C255.794375 14.1953125 258.104375 14.1953125 260.484375 14.1953125 C260.814375 9.5753125 261.144375 4.9553125 261.484375 0.1953125 C265.48511085 0.08685882 269.482874 0.00776625 273.484375 -0.0546875 C274.60972656 -0.08820312 275.73507812 -0.12171875 276.89453125 -0.15625 C289.59578112 -0.30480263 289.59578112 -0.30480263 294.484375 4.1953125 C303.27442376 19.57789784 298.484375 39.47840281 298.484375 57.1953125 C194.534375 57.1953125 90.584375 57.1953125 -16.515625 57.1953125 C-16.515625 9.1953125 -16.515625 9.1953125 -10.515625 2.1953125 C-6.33815002 0.10657501 -4.55232247 -0.04138475 0 0 Z " fill="#FB5D3D" transform="translate(101.515625,40.8046875)"/>
<path d="M0 0 C1.423125 0.4021875 1.423125 0.4021875 2.875 0.8125 C4.18152724 3.42555449 3.99914766 5.33144238 3.99804783 8.25918007 C4.00003888 9.42313289 4.00202993 10.58708572 4.00408131 11.78630984 C3.99971205 13.72109999 3.99971205 13.72109999 3.99525452 15.69497681 C3.99569023 17.07026164 3.99656515 18.44554639 3.99784368 19.8208307 C4.00008855 23.61304661 3.99606746 27.40523449 3.99106562 31.19744682 C3.9867612 35.28197608 3.98820754 39.36650366 3.9889679 43.45103455 C3.98949314 50.53209434 3.98634633 57.61314494 3.98073006 64.69420242 C3.97261507 74.93231788 3.96999984 85.17042888 3.96874207 95.40854721 C3.96655154 112.01781003 3.95989145 128.62706796 3.95043945 145.23632812 C3.94126534 161.37402319 3.9341845 177.51171692 3.92993164 193.64941406 C3.92966892 194.64355814 3.92940619 195.63770222 3.92913551 196.66197188 C3.9278305 201.64912633 3.92656679 206.63628079 3.92532361 211.62343526 C3.91495099 253.01979358 3.89733267 294.41614651 3.875 335.8125 C5.73392616 335.80835193 5.73392616 335.80835193 7.63040638 335.80412006 C37.02950208 335.73918688 66.42858154 335.6896987 95.82773115 335.65930401 C99.44399212 335.65555176 103.06025293 335.65166881 106.67651367 335.64770508 C107.3964649 335.64691815 108.11641613 335.64613122 108.85818406 335.64532044 C120.52502785 335.63225627 132.19182741 335.60859689 143.85864494 335.58104161 C155.82435798 335.55301549 167.79004781 335.53632967 179.75579232 335.53023452 C186.47910084 335.52648273 193.20231704 335.51743753 199.92559242 335.49530983 C206.24807553 335.47501417 212.57041649 335.46865216 218.89292908 335.47317696 C221.21859699 335.47234865 223.54426945 335.46634205 225.86990929 335.45488358 C229.03509819 335.44004788 232.19974407 335.44351381 235.36494446 335.45173645 C236.29392447 335.44299793 237.22290449 335.4342594 238.18003541 335.42525607 C239.02550689 335.43122922 239.87097837 335.43720236 240.7420702 335.44335651 C241.47303183 335.44221735 242.20399347 335.44107819 242.95710546 335.43990451 C245.46377001 335.92688223 246.3743123 336.77220215 247.875 338.8125 C247.6875 341.9375 247.6875 341.9375 246.875 344.8125 C244.58385529 345.95807236 243.31095453 345.93970055 240.76417637 345.94392776 C239.46515521 345.94968948 239.46515521 345.94968948 238.13989121 345.9555676 C237.18280807 345.95470112 236.22572494 345.95383463 235.23963928 345.95294189 C233.72116958 345.95739858 233.72116958 345.95739858 232.17202371 345.9619453 C228.7579848 345.97066177 225.34398082 345.97214302 221.92993164 345.97363281 C219.49118474 345.97825884 217.05243856 345.9832832 214.61369324 345.98867798 C207.9733248 346.00182323 201.33297013 346.00828723 194.69259191 346.01268864 C190.54870109 346.01544914 186.40481262 346.0196861 182.26092339 346.02419281 C170.79415693 346.03638592 159.32739235 346.04668563 147.86061954 346.0500679 C147.12647688 346.05028747 146.39233422 346.05050703 145.63594481 346.05073325 C144.90002029 346.05095153 144.16409576 346.05116981 143.4058705 346.0513947 C141.91454192 346.05183817 140.42321334 346.05228473 138.93188477 346.05273438 C138.19213024 346.0529558 137.45237571 346.05317723 136.69020437 346.05340537 C124.6969236 346.05735547 112.70370351 346.07481573 100.71044619 346.0980939 C88.40566092 346.12178457 76.10090614 346.13426868 63.7960977 346.13543582 C56.88391436 346.13635379 49.97181011 346.1421368 43.05964851 346.16025543 C36.56149742 346.17722853 30.06347032 346.1789262 23.56529427 346.17011642 C21.17512612 346.16934229 18.78495012 346.17373792 16.39480209 346.18357468 C13.14213375 346.19618028 9.89000794 346.19047963 6.63734436 346.17999268 C5.20506574 346.19207728 5.20506574 346.19207728 3.7438522 346.20440602 C2.87523035 346.19781618 2.0066085 346.19122633 1.11166477 346.1844368 C0.36052294 346.18503389 -0.39061889 346.18563097 -1.16452259 346.18624616 C-3.77977155 345.6876741 -4.61797213 345.00476041 -6.125 342.8125 C-6.50104749 340.26326656 -6.50104749 340.26326656 -6.50252342 337.14183044 C-6.51034666 335.9533529 -6.51816991 334.76487535 -6.52623022 333.54038334 C-6.51619197 331.57217703 -6.51619197 331.57217703 -6.50595093 329.56420898 C-6.50940563 328.16132206 -6.51416893 326.75843785 -6.52013266 325.35555935 C-6.53269825 321.49152073 -6.5264472 317.62770336 -6.51717401 313.76366377 C-6.5104065 309.60000551 -6.52085329 305.4363862 -6.52911377 301.2727356 C-6.54247794 293.11259272 -6.53956145 284.95253246 -6.53087585 276.79238629 C-6.52411024 270.16251778 -6.5231777 263.53267248 -6.5264473 256.90280151 C-6.526907 255.96045133 -6.52736669 255.01810115 -6.52784032 254.0471949 C-6.52879947 252.13303669 -6.5297721 250.21887848 -6.5307581 248.30472028 C-6.53931985 230.34099265 -6.52946555 212.3773109 -6.513357 194.41359079 C-6.49995311 178.98826932 -6.50228098 163.56301556 -6.51611328 148.13769531 C-6.53215524 130.23977194 -6.53849581 112.3418888 -6.52927649 94.44395924 C-6.52832081 92.53670566 -6.5273777 90.62945208 -6.5264473 88.72219849 C-6.52598447 87.78370809 -6.52552164 86.8452177 -6.52504479 85.87828821 C-6.52245074 79.25371839 -6.52683481 72.62917403 -6.53388596 66.00460815 C-6.5422858 57.93528472 -6.54005285 49.86604888 -6.52404372 41.79673553 C-6.5161405 37.67690187 -6.51310412 33.55721443 -6.52299118 29.43738174 C-6.53189642 25.66978069 -6.52707475 21.9024621 -6.51105852 18.13488686 C-6.50609213 16.1181299 -6.51594445 14.10135351 -6.52623022 12.08461666 C-6.51840697 10.89613912 -6.51058373 9.70766157 -6.50252342 8.48316956 C-6.50203637 7.45309564 -6.50154931 6.42302172 -6.50104749 5.36173344 C-6.125 2.8125 -6.125 2.8125 -4.79671729 0.9463644 C-3.125 -0.1875 -3.125 -0.1875 0 0 Z " fill="#FEFEFE" transform="translate(103.125,123.1875)"/>
<path d="M0 0 C3.63303084 1.69586126 5.94549046 3.73800488 8.75 6.625 C9.54921875 7.44226563 10.3484375 8.25953125 11.171875 9.1015625 C11.77515625 9.72804688 12.3784375 10.35453125 13 11 C9.012101 15.8074409 4.81930353 20.26459318 0.32421875 24.59765625 C-0.9283205 25.82296885 -2.18025643 27.04889843 -3.43164062 28.27539062 C-5.37905754 30.17942754 -7.32992552 32.07928913 -9.29125977 33.96899414 C-11.20182003 35.81294292 -13.09604929 37.67242824 -14.98828125 39.53515625 C-15.57676346 40.09469498 -16.16524567 40.6542337 -16.77156067 41.23072815 C-20.22896762 44.66510009 -21.76827512 46.92618123 -22 52 C-22 52.66 -22 53.32 -22 54 C-19.35244322 54.64721011 -19.35244322 54.64721011 -16 54 C-12.91626175 51.78902911 -10.37918451 49.07562608 -7.7578125 46.34375 C-6.98944061 45.56688843 -6.22106873 44.79002686 -5.42941284 43.98962402 C-2.98016825 41.50681191 -0.55260957 39.00395251 1.875 36.5 C3.53246694 34.81243848 5.19130567 33.1262231 6.8515625 31.44140625 C10.91708439 27.30975512 14.9649984 23.16145083 19 19 C22.63303084 20.69586126 24.94549046 22.73800488 27.75 25.625 C28.54921875 26.44226563 29.3484375 27.25953125 30.171875 28.1015625 C30.77515625 28.72804688 31.3784375 29.35453125 32 30 C30.59771936 33.17098328 28.94394221 35.30370777 26.49459839 37.74591064 C25.76823181 38.47502655 25.04186523 39.20414246 24.29348755 39.95535278 C23.49651459 40.74513519 22.69954163 41.5349176 21.87841797 42.34863281 C21.03931885 43.18802399 20.20021973 44.02741516 19.33569336 44.89224243 C17.03782233 47.18895972 14.73557743 49.48118096 12.43131018 51.7714777 C10.02274213 54.16753468 7.61984484 56.56926488 5.21633911 58.97039795 C0.66591044 63.51461297 -3.88959199 68.0537061 -8.44694126 72.59097934 C-13.63584111 77.75751666 -18.81905625 82.92974101 -24.00180268 88.10244989 C-34.66155703 98.74130483 -45.32842605 109.37300007 -56 120 C-57.10433586 119.05488516 -58.20846118 118.10952431 -59.3125 117.1640625 C-59.92738281 116.6376416 -60.54226563 116.1112207 -61.17578125 115.56884766 C-63.61670109 113.46963046 -65.9218998 111.46774399 -68 109 C-67.91753078 105.34073687 -65.76291735 103.47352875 -63.2275238 101.04153442 C-62.70771439 100.55603119 -62.18790497 100.07052795 -61.65234375 99.5703125 C-60.56144359 98.51734689 -59.47096151 97.46394801 -58.38085938 96.41015625 C-56.65917726 94.76294518 -54.93313611 93.12088798 -53.19897461 91.48681641 C-51.52430274 89.90289265 -49.86890748 88.30070651 -48.21484375 86.6953125 C-47.43209328 85.97313034 -47.43209328 85.97313034 -46.63352966 85.23635864 C-44.00232051 82.66103107 -43.03563578 81.36692844 -42.67407227 77.64404297 C-42.78162842 76.77150879 -42.88918457 75.89897461 -43 75 C-45.31680111 74.23965325 -45.31680111 74.23965325 -48 74 C-49.9864049 75.04029687 -49.9864049 75.04029687 -51.6875 76.81640625 C-52.37328125 77.46496582 -53.0590625 78.11352539 -53.765625 78.78173828 C-54.50296875 79.51376465 -55.2403125 80.24579102 -56 81 C-56.79921875 81.77972168 -57.5984375 82.55944336 -58.421875 83.36279297 C-60.96723943 85.86912716 -63.48666555 88.39907081 -66 90.9375 C-66.87011719 91.81212891 -67.74023438 92.68675781 -68.63671875 93.58789062 C-70.76013549 95.72297449 -72.88116378 97.86037205 -75 100 C-78.63303084 98.30413874 -80.94549046 96.26199512 -83.75 93.375 C-84.54921875 92.55773437 -85.3484375 91.74046875 -86.171875 90.8984375 C-86.77515625 90.27195312 -87.3784375 89.64546875 -88 89 C-83.50903918 83.61895349 -78.75790825 78.62042169 -73.79150391 73.67797852 C-72.59050049 72.47675606 -72.59050049 72.47675606 -71.36523438 71.25126648 C-68.73804239 68.62476696 -66.10733417 66.00181984 -63.4765625 63.37890625 C-61.6464591 61.55066939 -59.81657745 59.72221053 -57.98690796 57.89353943 C-53.67528872 53.5853384 -49.36145175 49.27936987 -45.04651296 44.97449392 C-40.13032954 40.06952459 -35.21701744 35.16168329 -30.30393338 30.25360978 C-20.20579313 20.16589545 -10.10408808 10.08175667 0 0 Z " fill="#6FBEE4" transform="translate(430,264)"/>
<path d="M0 0 C1.423125 0.4021875 1.423125 0.4021875 2.875 0.8125 C4.17975618 3.42201236 3.98801572 5.33951285 3.97265625 8.2578125 C3.96943359 9.33417969 3.96621094 10.41054687 3.96289062 11.51953125 C3.95451172 12.64746094 3.94613281 13.77539062 3.9375 14.9375 C3.93298828 16.07316406 3.92847656 17.20882812 3.92382812 18.37890625 C3.91201615 21.19015638 3.89554507 24.0013023 3.875 26.8125 C5.77892706 26.80835193 5.77892706 26.80835193 7.72131729 26.80412006 C37.83745307 26.7391758 67.95357082 26.68969314 98.06975944 26.65930401 C101.77485928 26.6555518 105.47995897 26.65166884 109.18505859 26.64770508 C109.9226912 26.64691815 110.66032381 26.64613122 111.42030892 26.64532044 C123.37100376 26.63225909 135.3216554 26.60860125 147.27232459 26.58104161 C159.53071573 26.55300766 171.78908421 26.53632801 184.04750609 26.53023452 C191.61435996 26.52611389 199.18109173 26.51308954 206.74790803 26.4887506 C212.54576192 26.4710492 218.34353721 26.46912929 224.14141273 26.47317696 C226.52309993 26.47234921 228.9047916 26.46635001 231.28645134 26.45488358 C234.53010893 26.44002845 237.77323773 26.44352107 241.01690674 26.45173645 C241.9663196 26.44299793 242.91573246 26.4342594 243.89391541 26.42525607 C250.2851545 26.46921903 250.2851545 26.46921903 253.49113083 28.33504772 C253.94780766 28.82260697 254.40448448 29.31016623 254.875 29.8125 C254.5 32.75 254.5 32.75 253.875 35.8125 C251.55320829 36.97339586 250.22145817 36.93977448 247.63644409 36.94392776 C246.29469714 36.94968948 246.29469714 36.94968948 244.92584419 36.9555676 C243.93695135 36.95470112 242.94805851 36.95383463 241.92919922 36.95294189 C240.36066854 36.95739858 240.36066854 36.95739858 238.76045036 36.9619453 C235.23352145 36.97066247 231.70662635 36.97214307 228.1796875 36.97363281 C225.66050137 36.97825876 223.14131595 36.98328311 220.62213135 36.98867798 C213.76282985 37.00182331 206.90353955 37.00828712 200.0442276 37.01268864 C195.76432674 37.01544887 191.48442814 37.01968576 187.20452881 37.02419281 C175.36288596 37.03638546 163.52124494 37.04668557 151.67959595 37.0500679 C150.92146083 37.05028747 150.16332572 37.05050703 149.38221681 37.05073325 C148.62223724 37.05095153 147.86225768 37.05116981 147.07924843 37.0513947 C145.53916041 37.05183817 143.99907239 37.05228474 142.45898438 37.05273438 C141.69504262 37.0529558 140.93110086 37.05317723 140.14400935 37.05340537 C127.75559581 37.05735639 115.36724097 37.07481966 102.97885013 37.0980939 C90.27065534 37.12177703 77.56249006 37.13426832 64.85427284 37.13543582 C57.71464465 37.13635417 50.57509301 37.14214663 43.43548584 37.16025543 C36.72474098 37.17721619 30.01416664 37.17893192 23.30339813 37.17011642 C20.83379477 37.16934168 18.36418384 37.17374571 15.89459991 37.18357468 C12.53648962 37.19616135 9.17890625 37.19049019 5.82080078 37.17999268 C4.33746152 37.19207728 4.33746152 37.19207728 2.82415581 37.20440602 C1.48240886 37.19452126 1.48240886 37.19452126 0.11355591 37.1844368 C-0.66226774 37.18503389 -1.43809139 37.18563097 -2.23742485 37.18624616 C-3.17177455 37.00124181 -3.17177455 37.00124181 -4.125 36.8125 C-7.37464548 31.93803178 -6.45800751 26.21105582 -6.44067383 20.50634766 C-6.43751104 18.32013231 -6.46098905 16.13526708 -6.48632812 13.94921875 C-6.48860094 12.55989754 -6.4893047 11.17057269 -6.48828125 9.78125 C-6.49126221 8.51732422 -6.49424316 7.25339844 -6.49731445 5.95117188 C-6.125 2.8125 -6.125 2.8125 -4.79760742 0.86523438 C-3.125 -0.1875 -3.125 -0.1875 0 0 Z " fill="#FEC7BE" transform="translate(103.125,55.1875)"/>
<path d="M0 0 C1.86594384 1.32482012 3.40031273 2.71105741 4.953125 4.38671875 C7.53652851 3.23853941 9.2598294 2.11147121 11.390625 0.19921875 C13.953125 -1.61328125 13.953125 -1.61328125 16.703125 -1.42578125 C18.953125 -0.61328125 18.953125 -0.61328125 19.953125 0.38671875 C20.453125 3.01171875 20.453125 3.01171875 19.953125 6.38671875 C18.35546875 8.12890625 18.35546875 8.12890625 16.390625 9.88671875 C14.45764263 11.60381583 14.45764263 11.60381583 12.953125 13.38671875 C12.89562943 16.30301988 12.89562943 16.30301988 13.953125 19.38671875 C14.8525648 27.8714342 13.23691861 35.6399275 8.33984375 42.71875 C2.80459089 49.3340522 -3.40607578 53.77805033 -12.16015625 54.72265625 C-22.65539223 54.85080321 -29.52169678 52.5478868 -37.25390625 45.38671875 C-42.94128913 39.04262282 -45.37622532 32.2298431 -45.265625 23.82421875 C-44.49666998 15.25586277 -40.47617876 8.47107975 -34.234375 2.69921875 C-24.21029746 -5.56881601 -11.46222623 -6.49136281 0 0 Z " fill="#050505" transform="translate(171.046875,151.61328125)"/>
<path d="M0 0 C2.625 2.25 2.625 2.25 4 4 C6.58340351 2.85182066 8.3067044 1.72475246 10.4375 -0.1875 C13 -2 13 -2 15.75 -1.8125 C18 -1 18 -1 19 0 C19.5 2.625 19.5 2.625 19 6 C17.40234375 7.7421875 17.40234375 7.7421875 15.4375 9.5 C13.50451763 11.21709708 13.50451763 11.21709708 12 13 C11.94250443 15.91630113 11.94250443 15.91630113 13 19 C13.90137645 27.50298449 12.24849381 35.19962672 7.421875 42.33203125 C1.61022002 49.38717097 -5.34592535 53.33257002 -14.5703125 54.2578125 C-23.34214715 54.6243237 -29.44724785 52.28013257 -36.25 46.8125 C-41.67546919 41.78771417 -45.4647385 35.38349551 -46.203125 27.95703125 C-46.38464361 19.65255484 -44.25624122 12.53478638 -39 6 C-28.11538217 -5.05097662 -14.03507744 -8.11402914 0 0 Z " fill="#050505" transform="translate(172,229)"/>
<path d="M0 0 C6.26360456 6.43759358 10.18467828 13.41249477 10.6875 22.4375 C10.51090393 30.53884488 7.57014948 38.20129178 2.125 44.25 C-5.00149442 50.51640027 -13.02072303 53.27130886 -22.47265625 52.85546875 C-30.89124428 51.46073247 -38.10405259 47.24250584 -43.34765625 40.51171875 C-48.28552712 32.76792684 -49.73907288 25.86773837 -48.3828125 16.87890625 C-46.53138126 8.75036224 -41.38357244 2.73574358 -34.74609375 -2.16796875 C-23.61492016 -8.82743978 -10.56234428 -6.48143854 0 0 Z " fill="#060505" transform="translate(174.75,307.6875)"/>
<path d="M0 0 C6.26360456 6.43759358 10.18467828 13.41249477 10.6875 22.4375 C10.50944798 30.60563656 7.54269564 38.26592293 2 44.3125 C-4.87260498 50.4782944 -13.61194123 52.82385365 -22.671875 52.71484375 C-31.16454159 51.6047617 -38.20886015 46.91568959 -43.41796875 40.26171875 C-48.35225327 33.0411675 -49.65057385 25.93227831 -48.75 17.3125 C-46.19259217 7.97642082 -39.79391442 1.11892516 -31.64453125 -3.77734375 C-21.24979985 -8.77110131 -9.32287507 -5.72085516 0 0 Z " fill="#070606" transform="translate(174.75,384.6875)"/>
<path d="M0 0 C0.93743657 8.30074806 0.93743657 8.30074806 -1.08235359 11.96193695 C-2.69853908 13.81894228 -4.39854238 15.46697063 -6.22290039 17.12011719 C-6.88465271 17.75923538 -7.54640503 18.39835358 -8.22821045 19.05683899 C-9.66292426 20.43693632 -11.10884763 21.80545548 -12.56456184 23.16338348 C-14.8819056 25.32888011 -17.16332198 27.52700481 -19.43833923 29.73687744 C-25.90957191 36.01031401 -32.44131855 42.21928036 -38.99194336 48.40966797 C-43.00570665 52.20732122 -46.98018522 56.04288342 -50.93530083 59.9015274 C-52.43599368 61.3500566 -53.95103585 62.78389576 -55.48137093 64.20107269 C-66.6000001 74.49970284 -71.80835662 83.72565273 -75.36612701 98.47340584 C-76.35469064 102.4137837 -77.61849977 106.2584736 -78.87109375 110.12109375 C-79.30633265 111.52077242 -79.73958783 112.92107117 -80.16992188 114.32226562 C-80.811663 116.41047087 -81.45635745 118.49743025 -82.11206055 120.58129883 C-82.77031943 122.67510964 -83.41573843 124.77250995 -84.05859375 126.87109375 C-84.43298584 128.07693115 -84.80737793 129.28276855 -85.19311523 130.52514648 C-86.0311104 134.13397711 -86.14664045 137.30861445 -86 141 C-78.66822314 140.43223697 -72.05347555 138.77666712 -65.02734375 136.6484375 C-63.90485733 136.31131744 -62.78237091 135.97419739 -61.62586975 135.62686157 C-59.26381308 134.91335666 -56.90310645 134.19536867 -54.54370117 133.47314453 C-50.95107567 132.379134 -47.35015061 131.31622576 -43.74804688 130.25390625 C-41.44473496 129.5539811 -39.14198037 128.8522187 -36.83984375 128.1484375 C-35.771931 127.83772308 -34.70401825 127.52700867 -33.60374451 127.20687866 C-26.65423267 125.03168557 -22.07138821 122.2062133 -17 117 C-15.83126343 115.87960327 -15.83126343 115.87960327 -14.63891602 114.73657227 C-14.01686279 114.10291748 -13.39480957 113.4692627 -12.75390625 112.81640625 C-12.06232422 112.11708984 -11.37074219 111.41777344 -10.65820312 110.69726562 C-9.96662109 109.99279297 -9.27503906 109.28832031 -8.5625 108.5625 C-7.14941047 107.12406358 -5.73417027 105.68773558 -4.31640625 104.25390625 C-3.70224854 103.62814697 -3.08809082 103.0023877 -2.45532227 102.35766602 C-1 101 -1 101 0 101 C0.7334805 105.59406308 1.00305012 109.40794768 -1.54248047 113.44824219 C-3.7335778 115.89926533 -6.02439078 118.14254119 -8.4375 120.375 C-9.22060547 121.15488281 -10.00371094 121.93476563 -10.81054688 122.73828125 C-15.79808127 127.54109215 -20.46063937 130.73203118 -27 133 C-28.17820312 133.40863281 -29.35640625 133.81726563 -30.5703125 134.23828125 C-31.74335938 134.59277344 -32.91640625 134.94726562 -34.125 135.3125 C-35.1154834 135.61498657 -35.1154834 135.61498657 -36.12597656 135.92358398 C-38.41561616 136.62146072 -40.70774133 137.31077665 -43 138 C-45.90906708 138.88017403 -48.81761885 139.76202174 -51.72583008 140.64501953 C-53.73549357 141.25471642 -55.74574559 141.86247695 -57.7565918 142.46826172 C-62.86429408 144.01377204 -67.91291439 145.64164051 -72.9375 147.4375 C-77.59623064 148.99942566 -81.09999052 149.67586338 -86 149 C-89.44246086 147.27876957 -91.40418623 146.00205044 -93.375 142.6875 C-95.11525328 135.2044109 -93.10296977 129.1390808 -90.8125 122 C-90.49297363 120.9776123 -90.17344727 119.95522461 -89.84423828 118.90185547 C-87.71226767 112.11656216 -85.48237385 105.36724541 -83.18359375 98.63671875 C-82.30484677 95.93667441 -81.4889861 93.25128543 -80.72265625 90.51953125 C-80.50754395 89.75688965 -80.29243164 88.99424805 -80.07080078 88.20849609 C-79.66241117 86.74402418 -79.2629557 85.27701711 -78.87451172 83.80712891 C-76.60608794 75.67094458 -71.78965217 70.49682738 -65.95239258 64.70947266 C-65.25115768 64.00633942 -64.54992279 63.30320618 -63.82743835 62.57876587 C-61.52131853 60.26895776 -59.20810754 57.96640002 -56.89453125 55.6640625 C-55.28802129 54.05874505 -53.68188126 52.45305732 -52.07609558 50.84701538 C-48.71763522 47.49011627 -45.35584945 44.13659615 -41.99145508 40.78564453 C-37.66837495 36.47961536 -33.35196882 32.16697068 -29.03778553 27.8520298 C-25.7259614 24.54047676 -22.41154405 21.23152985 -19.09622765 17.92347336 C-17.50273048 16.33316796 -15.90984672 14.74224769 -14.31757545 13.15071487 C-12.10070084 10.93599497 -9.88057366 8.72459129 -7.65942383 6.51416016 C-6.99605011 5.85033325 -6.33267639 5.18650635 -5.64920044 4.50256348 C-1.11447851 0 -1.11447851 0 0 0 Z " fill="#D3BDAF" transform="translate(400,271)"/>
<path d="M0 0 C1.27039627 -0.00563965 2.54079254 -0.0112793 3.84968567 -0.01708984 C5.26547298 -0.01320088 6.68125973 -0.00910452 8.0970459 -0.00482178 C9.58176343 -0.00753056 11.06647961 -0.01109086 12.55119324 -0.01544189 C16.59036981 -0.02458158 20.62944455 -0.02101518 24.66862297 -0.01468372 C28.88911088 -0.00963188 33.10958988 -0.0143129 37.33007812 -0.01745605 C44.41859508 -0.02109809 51.50707041 -0.0162904 58.59558105 -0.0067749 C66.79921063 0.00411011 75.0027408 0.0005847 83.20636797 -0.01042771 C90.2407849 -0.01949385 97.27517184 -0.02078917 104.30959272 -0.01555037 C108.51490884 -0.01242696 112.72017819 -0.01203148 116.92549133 -0.01862335 C120.87842796 -0.02438643 124.83123602 -0.02041909 128.78415871 -0.00883484 C130.23784483 -0.00618267 131.69154172 -0.0069628 133.14522362 -0.01136017 C135.12374875 -0.0167949 137.10229744 -0.00878318 139.08081055 0 C140.18989525 0.00075405 141.29897995 0.0015081 142.44167328 0.002285 C145.04040527 0.25396729 145.04040527 0.25396729 147.04040527 2.25396729 C147.39271617 5.00199229 147.50885039 6.5825191 145.89849186 8.89073467 C143.23756296 10.84299302 141.28028144 10.62868917 137.9985199 10.62818909 C136.10348473 10.63871056 136.10348473 10.63871056 134.17016602 10.64944458 C132.76745447 10.64201668 131.36474451 10.63428552 129.96203613 10.62628174 C128.48702233 10.62870929 127.01201017 10.63242826 125.53700256 10.63734436 C121.52882166 10.64676124 117.52088461 10.63732179 113.51272273 10.62401223 C109.32293957 10.61271065 105.13316865 10.61680418 100.94337463 10.61875916 C93.90788784 10.61964244 86.87249735 10.60855367 79.83703613 10.59014893 C71.695296 10.56897253 63.55369689 10.56547295 55.41193479 10.57171088 C47.5881526 10.57739897 39.76442023 10.57176599 31.94064522 10.56053734 C28.60694015 10.5558848 25.27326547 10.55502031 21.93955803 10.55712318 C18.01696533 10.55900229 14.09451684 10.55093149 10.17195702 10.53506279 C8.72956183 10.53080858 7.28715205 10.52997698 5.84475327 10.53275299 C3.88159787 10.53595892 1.91843401 10.52569739 -0.04469299 10.5146637 C-1.14510453 10.51261083 -2.24551607 10.51055796 -3.37927341 10.50844288 C-5.95959473 10.25396729 -5.95959473 10.25396729 -7.95959473 8.25396729 C-8.20959473 5.25396729 -8.20959473 5.25396729 -7.95959473 2.25396729 C-5.24127491 -0.46435253 -3.80525482 0.00258714 0 0 Z " fill="#030303" transform="translate(211.9595947265625,248.74603271484375)"/>
<path d="M0 0 C1.26053696 -0.00563965 2.52107391 -0.0112793 3.81980896 -0.01708984 C5.22456417 -0.01320086 6.62931881 -0.0091045 8.03407288 -0.00482178 C9.50731581 -0.0075306 10.98055739 -0.01109092 12.45379639 -0.01544189 C16.46204961 -0.02458195 20.47020022 -0.02101482 24.47845531 -0.01468372 C28.66777883 -0.00963111 32.85709338 -0.0143132 37.04641724 -0.01745605 C44.08365969 -0.02109827 51.12086022 -0.01629035 58.15809631 -0.0067749 C66.29922217 0.00410592 74.44024783 0.00058782 82.58137125 -0.01042771 C89.56399963 -0.01949838 96.54659781 -0.02078682 103.52923018 -0.01555037 C107.70272022 -0.01242891 111.87616315 -0.01202606 116.04965019 -0.01862335 C119.97386307 -0.02439284 123.89794659 -0.02040725 127.82214546 -0.00883484 C129.26412364 -0.00618594 130.70611266 -0.00695727 132.14808655 -0.01136017 C134.11312476 -0.01680781 136.07818671 -0.00877191 138.04321289 0 C139.14400146 0.00075405 140.24479002 0.0015081 141.37893581 0.002285 C144.08509827 0.25396729 144.08509827 0.25396729 147.08509827 2.25396729 C146.82948503 4.59708859 146.49239054 6.93240131 146.08509827 9.25396729 C143.36081984 10.6161065 141.21445427 10.38303911 138.16346741 10.38768005 C136.90148529 10.39194504 135.63950317 10.39621002 134.33927917 10.40060425 C132.93293759 10.40025471 131.52659603 10.39979316 130.12025452 10.39923096 C128.64538996 10.4022217 127.17052619 10.40562404 125.69566345 10.40940857 C121.68337469 10.41826034 117.67110724 10.42058715 113.65880966 10.42122436 C110.31364369 10.42217238 106.96848272 10.42584936 103.62331867 10.42939645 C95.73459941 10.43754512 87.84589157 10.43998027 79.95716858 10.43927002 C71.8080769 10.43866878 63.65905133 10.4492288 55.50997639 10.46501368 C48.52227369 10.47806873 41.53459266 10.48345479 34.54687786 10.48281461 C30.36950039 10.48255907 26.19218166 10.48544131 22.01481628 10.49599266 C18.08815486 10.50563975 14.16160876 10.5057763 10.23494339 10.49847603 C8.79092873 10.49742601 7.34690701 10.4998176 5.90290451 10.50583649 C3.93752705 10.5135003 1.97211067 10.50773784 0.00672913 10.50120544 C-1.09498123 10.50175021 -2.19669159 10.50229498 -3.33178711 10.50285625 C-5.91490173 10.25396729 -5.91490173 10.25396729 -7.91490173 8.25396729 C-8.16490173 5.25396729 -8.16490173 5.25396729 -7.91490173 2.25396729 C-5.204172 -0.45676245 -3.79384105 0.00259971 0 0 Z " fill="#030303" transform="translate(211.91490173339844,171.74603271484375)"/>
<path d="M0 0 C4.95084386 3.65419428 9.94276922 8.71718867 10.9609375 15.015625 C11.07795433 21.5217605 9.69823005 26.62009551 5.19921875 31.4765625 C-0.10935026 36.16785605 -4.86946825 37.46509306 -11.80859375 37.3203125 C-17.27967973 36.50422966 -20.98516654 33.36390803 -24.75 29.5 C-27.9493596 24.45485601 -28.99027701 19.88517776 -28.375 13.9375 C-26.34671401 7.68260608 -22.66841469 3.70547253 -17.375 -0.0625 C-12.3969279 -2.55153605 -5.14098912 -1.61845954 0 0 Z " fill="#EEDDD3" transform="translate(164.375,313.0625)"/>
<path d="M0 0 C4.95084386 3.65419428 9.94276922 8.71718867 10.9609375 15.015625 C11.07795433 21.5217605 9.69823005 26.62009551 5.19921875 31.4765625 C-0.04571637 36.11162144 -4.8642759 37.53288935 -11.7421875 37.37890625 C-17.90462142 36.34573855 -22.04012868 32.53283402 -25.9375 27.875 C-28.4729822 22.6404561 -28.08740878 16.57134497 -27.375 10.9375 C-22.16583398 -0.28224219 -11.452909 -3.60554543 0 0 Z " fill="#EEDED4" transform="translate(164.375,390.0625)"/>
<path d="M0 0 C4.09444698 2.43185336 7.15224913 5.40534253 10.47265625 8.7890625 C11.0965625 9.40136719 11.72046875 10.01367188 12.36328125 10.64453125 C16.15189881 14.45764418 19.0474118 17.55521057 19.33984375 23.16015625 C18.40527255 31.61651821 14.20423163 36.20437691 8.22265625 41.9140625 C5.41296158 40.63383375 3.36873245 39.30692121 1.19824219 37.11669922 C0.63796326 36.55626923 0.07768433 35.99583923 -0.49957275 35.41842651 C-1.09139343 34.81628326 -1.68321411 34.21414001 -2.29296875 33.59375 C-2.90879822 32.97509064 -3.52462769 32.35643127 -4.15911865 31.71902466 C-6.11994711 29.74702436 -8.07369676 27.76817513 -10.02734375 25.7890625 C-11.35761174 24.44876086 -12.68833575 23.10891167 -14.01953125 21.76953125 C-17.27744525 18.48959661 -20.52902908 15.20350308 -23.77734375 11.9140625 C-22.12575309 8.37255975 -20.29617301 6.31395741 -17.33984375 3.7265625 C-16.16615234 2.68435547 -16.16615234 2.68435547 -14.96875 1.62109375 C-10.44854584 -1.8999922 -5.25853865 -2.05608122 0 0 Z " fill="#F75B3B" transform="translate(477.77734375,230.0859375)"/>
<path d="M0 0 C1.07853745 0.00607269 1.07853745 0.00607269 2.17886353 0.01226807 C2.9367215 0.00876343 3.69457947 0.00525879 4.47540283 0.00164795 C6.98732591 -0.00717417 9.49896869 -0.00131861 12.01089478 0.00543213 C13.75202488 0.00408561 15.49315463 0.0021452 17.23428345 -0.00036621 C20.88609389 -0.00331812 24.53780661 0.0009823 28.18960571 0.01031494 C32.87746459 0.02170954 37.56509448 0.01515042 42.25294495 0.00317001 C45.84908788 -0.00404679 49.44517625 -0.00176149 53.0413208 0.0034256 C54.77014187 0.00476259 56.49896786 0.00311264 58.2277832 -0.00153351 C60.64129818 -0.00659584 63.05443901 0.00110714 65.46792603 0.01226807 C66.18695099 0.0082196 66.90597595 0.00417114 67.64678955 0 C72.59486581 0.04252817 72.59486581 0.04252817 74.82339478 2.27105713 C75.13589478 5.27105713 75.13589478 5.27105713 74.82339478 8.27105713 C71.24042821 10.65970151 68.6891761 10.55392946 64.55386353 10.52984619 C63.81697296 10.53335083 63.0800824 10.53685547 62.32086182 10.54046631 C59.88411042 10.54927159 57.44764915 10.5434388 55.01089478 10.53668213 C53.31843002 10.53802913 51.62596563 10.53996995 49.9335022 10.54248047 C46.38602007 10.5454301 42.83863864 10.54113928 39.29116821 10.53179932 C34.74131759 10.52040485 30.19170292 10.52696519 25.64186096 10.53894424 C22.14690367 10.5461672 18.65200243 10.54387291 15.15704346 10.53868866 C13.47928845 10.53735337 11.80152838 10.53899567 10.1237793 10.54364777 C7.78002418 10.54872017 5.43665254 10.54099291 3.09292603 10.52984619 C2.05019028 10.53591888 2.05019028 10.53591888 0.98638916 10.54211426 C-2.63456466 10.51016987 -4.07108069 10.34140682 -7.17660522 8.27105713 C-7.48910522 5.27105713 -7.48910522 5.27105713 -7.17660522 2.27105713 C-4.71954662 -0.18600147 -3.35359113 0.02882374 0 0 Z " fill="#050504" transform="translate(211.17660522460938,325.72894287109375)"/>
<path d="M0 0 C3.82141561 1.42159476 5.73485429 3.60228144 8 7 C4.37 10.63 0.74 14.26 -3 18 C-7 16 -7 16 -9.4375 13.8125 C-11.86313824 11.6819292 -11.86313824 11.6819292 -14.8125 12.25 C-15.534375 12.4975 -16.25625 12.745 -17 13 C-18.01388674 15.17243501 -18.01388674 15.17243501 -18 18 C-16.18711071 20.42722387 -14.53322855 22.30648996 -12.375 24.375 C-11.84003906 24.93316406 -11.30507812 25.49132812 -10.75390625 26.06640625 C-8.42963289 28.35674862 -6.80758316 29.92589828 -3.48828125 30.23046875 C0.11134744 28.45043258 2.48274038 25.86291986 5.1875 22.9375 C7.08989519 20.91088554 9.01256314 18.94633772 11 17 C11.66 17 12.32 17 13 17 C12.72980587 23.07936783 12.03723846 27.17774296 8 32 C2.41277335 37.02850398 -1.71582667 38.5222509 -9.17578125 38.3828125 C-14.84852647 37.61389268 -18.47942363 34.56059153 -22.375 30.5625 C-25.5743596 25.51735601 -26.61527701 20.94767776 -26 15 C-23.97171401 8.74510608 -20.29341469 4.76797253 -15 1 C-10.58764399 -1.20617801 -4.80251802 -0.43181815 0 0 Z " fill="#E9D9CF" transform="translate(162,158)"/>
<path d="M0 0 C4.82010807 1.69126599 5.8524656 2.80328747 9 7 C5.37 10.63 1.74 14.26 -2 18 C-6 16 -6 16 -7.9375 13.875 C-9.86711486 11.76841718 -9.86711486 11.76841718 -12.625 11.625 C-15.18227196 11.79015749 -15.18227196 11.79015749 -17 14 C-16.89817711 18.90446939 -14.05846139 21.60973001 -10.75 24.875 C-10.27175781 25.38546875 -9.79351562 25.8959375 -9.30078125 26.421875 C-7.11312601 28.61545884 -5.67205498 29.94585339 -2.52734375 30.19921875 C1.1222252 28.46750674 3.46883624 25.87795833 6.1875 22.9375 C8.08989519 20.91088554 10.01256314 18.94633772 12 17 C12.66 17 13.32 17 14 17 C14.55726034 22.5726034 13.06026293 26.44715484 10 31 C6.52626448 34.68736096 2.55481765 37.62312473 -2.515625 38.37109375 C-9.38383755 38.5378932 -13.74805278 37.51940612 -19 33 C-23.19961559 28.68986821 -24.71556449 24.5599196 -25.375 18.625 C-24.71115972 12.20787729 -22.22572331 7.79549028 -17.375 3.5625 C-11.90410221 -0.82138534 -6.86965514 -0.50287672 0 0 Z " fill="#EAD9CF" transform="translate(161,235)"/>
<path d="M0 0 C1.11455566 -0.00630432 2.22911133 -0.01260864 3.37744141 -0.019104 C4.58577637 -0.01505554 5.79411133 -0.01100708 7.0390625 -0.00683594 C8.89217041 -0.00970612 8.89217041 -0.00970612 10.78271484 -0.01263428 C14.06997657 -0.01434704 17.35705037 -0.00627793 20.64428711 0.00488281 C22.6620078 0.00878509 24.67955451 0.00489736 26.69726562 -0.00195312 C30.56128078 -0.01427098 34.42503678 -0.01282072 38.2890625 -0.00683594 C39.49739746 -0.0108844 40.70573242 -0.01493286 41.95068359 -0.019104 C43.06523926 -0.01279968 44.17979492 -0.00649536 45.328125 0 C46.80466553 0.00238678 46.80466553 0.00238678 48.31103516 0.00482178 C50.6640625 0.25878906 50.6640625 0.25878906 52.6640625 2.25878906 C53.02005765 5.03555126 53.14789336 6.59404835 51.47265625 8.89567566 C49.02800566 10.73817676 47.45915687 10.63313475 44.4140625 10.63110352 C43.34285156 10.63733231 42.27164063 10.6435611 41.16796875 10.64997864 C40.01167969 10.64076889 38.85539062 10.63155914 37.6640625 10.62207031 C36.47683594 10.62256882 35.28960937 10.62306732 34.06640625 10.62358093 C31.55467049 10.62123897 29.04293244 10.61150338 26.53125 10.5949707 C22.67947475 10.57138344 18.82839157 10.57440851 14.9765625 10.58105469 C12.53905836 10.57547795 10.10155714 10.5683681 7.6640625 10.55957031 C6.50777344 10.56048172 5.35148438 10.56139313 4.16015625 10.56233215 C3.08894531 10.55280014 2.01773438 10.54326813 0.9140625 10.53344727 C-0.02953125 10.52883987 -0.973125 10.52423248 -1.9453125 10.51948547 C-4.3359375 10.25878906 -4.3359375 10.25878906 -7.3359375 8.25878906 C-7.6484375 5.25878906 -7.6484375 5.25878906 -7.3359375 2.25878906 C-4.7278852 -0.34926324 -3.6321181 0.0058712 0 0 Z " fill="#050505" transform="translate(211.3359375,402.7412109375)"/>
<path d="M0 0 C7.11905227 5.80683219 13.47374812 12.36285444 19.9375 18.875 C21.10979204 20.05231638 22.28231614 21.22940174 23.45507812 22.40625 C26.30606982 25.26817489 29.15389615 28.13321457 32 31 C31.06725891 32.12894876 30.12859878 33.25300876 29.1875 34.375 C28.66542969 35.00148438 28.14335937 35.62796875 27.60546875 36.2734375 C26 38 26 38 23 40 C12.77 29.77 2.54 19.54 -8 9 C-2 2 -2 2 0 0 Z " fill="#F9B19B" transform="translate(446,248)"/>
<path d="M0 0 C3.83605489 1.58363082 6.28445649 4.02614122 9.203125 6.9375 C9.6857782 7.41823975 10.1684314 7.89897949 10.66571045 8.39428711 C11.67999064 9.40721093 12.69176804 10.42264638 13.70117188 11.44042969 C15.25171972 13.00173165 16.81270503 14.55202497 18.375 16.1015625 C19.36001734 17.08790061 20.34441453 18.0748585 21.328125 19.0625 C22.67245605 20.41021484 22.67245605 20.41021484 24.04394531 21.78515625 C26 24 26 24 26 26 C24.25766175 26.72697561 22.50572655 27.43098244 20.75 28.125 C19.77546875 28.51945312 18.8009375 28.91390625 17.796875 29.3203125 C14.44884302 30.13394038 13.86642928 29.72617908 11 28 C8.21509555 25.81551073 5.686611 23.37724331 3.125 20.9375 C2.05378906 19.99100586 2.05378906 19.99100586 0.9609375 19.02539062 C-3.96300992 14.29706515 -3.96300992 14.29706515 -4.06738281 10.63720703 C-3.26355547 6.7830997 -1.81116024 3.48258559 0 0 Z " fill="#F2AC97" transform="translate(337,363)"/>
<path d="M0 0 C0.82435547 -0.020625 1.64871094 -0.04125 2.49804688 -0.0625 C3.29146484 -0.06765625 4.08488281 -0.0728125 4.90234375 -0.078125 C5.99083618 -0.09214355 5.99083618 -0.09214355 7.10131836 -0.10644531 C9.64735766 0.35629804 10.54484742 1.18061087 12.0625 3.25 C11.875 6.375 11.875 6.375 11.0625 9.25 C7.65558509 10.95345745 3.87982483 10.47662366 0.125 10.5 C-0.69935547 10.520625 -1.52371094 10.54125 -2.37304688 10.5625 C-3.16646484 10.56765625 -3.95988281 10.5728125 -4.77734375 10.578125 C-5.86583618 10.59214355 -5.86583618 10.59214355 -6.97631836 10.60644531 C-9.52235766 10.14370196 -10.41984742 9.31938913 -11.9375 7.25 C-11.75 4.125 -11.75 4.125 -10.9375 1.25 C-7.53058509 -0.45345745 -3.75482483 0.02337634 0 0 Z " fill="#FEFEFE" transform="translate(372.9375,458.75)"/>
<path d="M0 0 C0.9590625 -0.01675781 1.918125 -0.03351563 2.90625 -0.05078125 C5.5 0.3125 5.5 0.3125 7.359375 1.63671875 C8.5 3.3125 8.5 3.3125 8.25 6.4375 C7.5 9.3125 7.5 9.3125 6.5 10.3125 C4.35692104 10.43787741 2.20921114 10.48824364 0.0625 10.5 C-1.11183594 10.51417969 -2.28617187 10.52835938 -3.49609375 10.54296875 C-6.5 10.3125 -6.5 10.3125 -8.5 8.3125 C-8.8125 5.3125 -8.8125 5.3125 -8.5 2.3125 C-5.16602694 0.08985129 -3.90485109 0.01574537 0 0 Z " fill="#FEC5BC" transform="translate(376.5,81.6875)"/>
<path d="M0 0 C3.21043882 1.38188453 5.04936365 2.92421903 7.25 5.625 C7.77078125 6.25664062 8.2915625 6.88828125 8.828125 7.5390625 C9.40820312 8.26222656 9.40820312 8.26222656 10 9 C5.63799813 11.44697666 1.97306516 12.50269348 -3 13 C-2.45144652 8.428721 -1.58255197 4.32564205 0 0 Z " fill="#7F7F7F" transform="translate(329,387)"/>
<path d="M0 0 C2.4375 0.75 2.4375 0.75 4.4375 2.75 C4.10778521 6.04714793 3.8148161 7.3726839 1.4375 9.75 C-1.0625 10 -1.0625 10 -3.5625 9.75 C-5.5625 7.75 -5.5625 7.75 -5.875 4.75 C-5.771875 3.76 -5.66875 2.77 -5.5625 1.75 C-2.5625 -0.25 -2.5625 -0.25 0 0 Z " fill="#070C0F" transform="translate(398.5625,323.25)"/>
</svg>
